Coordinates
version=1
nRows=60
nColumns=12
inDegrees=yes

Units are S.I. units (second, meters, Newtons, ...)
Angles are in degrees

endheader
time	SC_y	SC_z	SC_x	AC_y	AC_z	AC_x	GH_y	GH_z	GH_yy	EL_x	PS_y
       0.0              -52.57          4.125           84.7          45.11         -4.388           19.1         -8.061          63.25         -120.5           62.1          105.6
   0.01669              -52.57          4.129           84.7          45.11         -4.388           19.1         -8.041          63.25         -120.5           62.1          105.6
   0.03338              -52.56          4.134           84.7          45.11         -4.389           19.1         -8.018          63.24         -120.5          62.09          105.6
   0.05007              -52.56           4.14           84.7          45.12          -4.39           19.1         -7.995          63.24         -120.5          62.09          105.6
   0.06676              -52.55          4.145           84.7          45.12         -4.391           19.1          -7.97          63.23         -120.5          62.09          105.6
   0.08345              -52.55          4.151          84.69          45.12         -4.392          19.09         -7.943          63.23         -120.5          62.09          105.6
    0.1001              -52.54          4.158          84.69          45.12         -4.393          19.09         -7.915          63.22         -120.5          62.09          105.6
    0.1168              -52.54          4.165          84.69          45.12         -4.394          19.09         -7.884          63.21         -120.5          62.09          105.6
    0.1335              -52.53          4.172          84.68          45.13         -4.396          19.09         -7.852           63.2         -120.5          62.08          105.6
    0.1502              -52.53           4.18          84.68          45.13         -4.397          19.08         -7.817           63.2         -120.5          62.08          105.6
    0.1669              -52.52          4.189          84.68          45.13         -4.399          19.08         -7.779          63.19         -120.5          62.08          105.6
    0.1836              -52.51          4.198          84.67          45.13           -4.4          19.08         -7.739          63.18         -120.5          62.08          105.6
    0.2003              -52.51          4.208          84.67          45.14         -4.402          19.07         -7.695          63.17         -120.5          62.07          105.6
     0.217               -52.5          4.218          84.67          45.14         -4.404          19.07         -7.648          63.16         -120.5          62.07          105.6
    0.2337              -52.49           4.23          84.66          45.14         -4.406          19.06         -7.598          63.15         -120.5          62.07          105.5
    0.2504              -52.48          4.242          84.66          45.15         -4.408          19.06         -7.542          63.13         -120.5          62.06          105.5
    0.2671              -52.47          4.256          84.65          45.15          -4.41          19.05         -7.482          63.12         -120.5          62.06          105.5
    0.2837              -52.46          4.271          84.65          45.16         -4.413          19.05         -7.417          63.11         -120.5          62.05          105.5
    0.3004              -52.45          4.287          84.64          45.16         -4.416          19.04         -7.346          63.09         -120.5          62.05          105.5
    0.3171              -52.43          4.305          84.63          45.17         -4.419          19.03         -7.267          63.07         -120.5          62.04          105.5
    0.3338              -52.42          4.324          84.62          45.17         -4.422          19.02         -7.182          63.05         -120.5          62.04          105.5
    0.3505               -52.4          4.346          84.62          45.18         -4.426          19.02         -7.087          63.03         -120.5          62.03          105.4
    0.3672              -52.38          4.369          84.61          45.19          -4.43          19.01         -6.983          63.01         -120.5          62.03          105.4
    0.3839              -52.37          4.395           84.6          45.19         -4.434          18.99         -6.867          62.98         -120.5          62.02          105.4
    0.4006              -52.34          4.425          84.58           45.2          -4.44          18.98         -6.739          62.95         -120.5          62.01          105.4
    0.4173              -52.32          4.457          84.57          45.21         -4.445          18.97         -6.596          62.92         -120.5           62.0          105.3
     0.434              -52.29          4.494          84.56          45.22         -4.451          18.95         -6.435          62.88         -120.5          61.99          105.3
    0.4506              -52.26          4.535          84.54          45.24         -4.459          18.94         -6.254          62.84         -120.6          61.98          105.3
    0.4673              -52.22          4.581          84.52          45.25         -4.467          18.92          -6.05          62.79         -120.6          61.96          105.2
     0.484              -52.19          4.633           84.5          45.27         -4.476           18.9         -5.818          62.74         -120.6          61.95          105.2
    0.5007              -52.14          4.693          84.48          45.28         -4.486          18.87         -5.554          62.68         -120.6          61.93          105.1
    0.5174              -52.09          4.762          84.45           45.3         -4.498          18.85          -5.25          62.61         -120.6          61.91          105.0
    0.5341              -52.03          4.842          84.42          45.33         -4.512          18.81           -4.9          62.53         -120.6          61.89          105.0
    0.5508              -51.96          4.934          84.38          45.36         -4.528          18.78         -4.493          62.44         -120.6          61.86          104.9
    0.5675              -51.88          5.042          84.34          45.39         -4.547          18.73         -4.016          62.33         -120.6          61.83          104.8
    0.5842              -51.78           5.17          84.29          45.43         -4.569          18.68         -3.454           62.2         -120.7          61.79          104.7
    0.6009              -51.67          5.321          84.23          45.47         -4.595          18.62         -2.787          62.05         -120.7          61.75          104.5
    0.6176              -51.53          5.503          84.15          45.53         -4.626          18.54         -1.987          61.87         -120.7           61.7          104.4
    0.6342              -51.36          5.722          84.07          45.59         -4.664          18.46         -1.019          61.65         -120.8          61.63          104.1
    0.6509              -51.16          5.991          83.96          45.68         -4.711          18.35          0.164          61.38         -120.8          61.56          103.9
    0.6676              -50.91          6.322          83.83          45.78         -4.768          18.21          1.624          61.05         -120.9          61.46          103.6
    0.6843               -50.6          6.735          83.66           45.9          -4.84          18.04          3.444          60.63         -120.9          61.34          103.2
     0.701              -50.21          7.255          83.46          46.06          -4.93          17.83          5.736          60.11         -121.0          61.19          102.7
    0.7177              -49.71          7.916          83.19          46.26         -5.045          17.56          8.651          59.45         -121.1           61.0          102.1
    0.7344              -49.07          8.763          82.86          46.51         -5.191          17.22          12.38           58.6         -121.3          60.75          101.3
    0.7511              -48.25          9.849          82.42          46.84         -5.379          16.78          17.17          57.51         -121.4          60.44          100.3
    0.7678               -47.2          11.24          81.87          47.26          -5.62          16.21          23.28          56.12         -121.7          60.04          98.99
    0.7845              -45.88          12.98          81.18          47.79         -5.922           15.5          30.97          54.37         -122.0          59.53          97.36
    0.8012              -44.27          15.11          80.33          48.44          -6.29          14.64          40.34          52.24         -122.3          58.91          95.37
    0.8178              -42.41          17.57          79.35          49.18         -6.717          13.64           51.2          49.76         -122.7           58.2          93.06
    0.8345               -40.4          20.24          78.28          49.99          -7.18          12.55          62.97          47.09         -123.2          57.43          90.56
    0.8512              -38.38          22.91          77.22           50.8         -7.642          11.47          74.73          44.41         -123.6          56.65          88.07
    0.8679              -36.52          25.37          76.24          51.54         -8.069          10.47          85.59          41.94         -124.1          55.94          85.76
    0.8846              -34.92           27.5          75.39          52.19         -8.437          9.601          94.96          39.81         -124.4          55.32          83.77
    0.9013               -33.6          29.24           74.7          52.71          -8.74          8.891          102.6          38.06         -124.7          54.82          82.14
     0.918              -32.55          30.63          74.15          53.13          -8.98          8.327          108.8          36.67         -124.9          54.41          80.84
    0.9347              -31.73          31.72          73.71          53.46         -9.168          7.885          113.5          35.58         -125.1           54.1          79.83
    0.9514              -31.09          32.56          73.38          53.72         -9.315          7.541          117.3          34.73         -125.3          53.85          79.03
    0.9681              -30.59          33.22          73.11          53.92         -9.429          7.272          120.2          34.06         -125.4          53.66          78.41
    0.9848               -30.2          33.74           72.9          54.08          -9.52          7.061          122.5          33.54         -125.5          53.51          77.93
